<?xml version="1.0" standalone="no"?>
<!DOCTYPE svg PUBLIC "-//W3C//DTD SVG 20010904//EN"
 "http://www.w3.org/TR/2001/REC-SVG-20010904/DTD/svg10.dtd">
<svg version="1.0" xmlns="http://www.w3.org/2000/svg"
 width="700.000000pt" height="700.000000pt" viewBox="0 0 700.000000 700.000000"
 preserveAspectRatio="xMidYMid meet">
<metadata>
Created by potrace 1.11, written by Peter Selinger 2001-2013
</metadata>
<g transform="translate(0.000000,700.000000) scale(0.100000,-0.100000)"
fill="#000000" stroke="none">
<path d="M2829 6366 c-2 -2 -22 -7 -44 -10 -409 -65 -770 -411 -855 -818 l-11
-58 -52 0 c-29 0 -344 -1 -702 -1 -502 -1 -664 -4 -713 -15 -206 -43 -381
-210 -436 -415 -13 -45 -15 -170 -13 -789 l2 -735 23 -63 c51 -141 153 -259
275 -321 133 -66 68 -63 1367 -63 646 0 1186 1 1201 1 22 1 25 6 27 41 7 112
80 258 177 355 241 239 607 239 850 0 100 -98 168 -238 177 -362 2 -25 7 -33
23 -34 106 -4 2386 1 2405 5 14 3 39 8 55 12 17 3 64 22 105 43 98 47 202 149
247 242 64 131 63 118 60 924 -2 803 2 744 -65 873 -28 56 -127 166 -174 195
-69 43 -108 61 -163 80 -62 22 -90 22 -1467 27 -47 0 -47 0 -53 38 -13 71 -67
217 -111 299 -140 257 -385 449 -669 522 -22 5 -53 13 -70 18 -31 7 -1388 16
-1396 9z m1319 -530 c29 -8 56 -15 60 -15 34 -3 148 -77 203 -132 61 -60 141
-190 127 -205 -7 -7 -2068 -7 -2075 0 -14 14 64 143 121 200 74 75 137 113
236 142 74 22 84 23 675 23 482 1 610 -2 653 -13z"/>
<path d="M3406 3333 c-104 -31 -182 -103 -223 -205 -21 -52 -25 -77 -25 -182
-1 -66 4 -146 11 -176 31 -144 176 -260 328 -262 143 -2 281 98 328 237 13 37
16 70 19 167 4 166 -25 258 -106 336 -70 68 -124 91 -223 97 -34 2 -81 -3
-109 -12z"/>
<path d="M140 1936 c1 -750 2 -821 19 -884 24 -91 71 -178 134 -244 78 -82
144 -123 262 -159 58 -18 160 -19 2950 -18 l2890 0 75 25 c142 47 273 161 335
291 55 116 54 111 55 991 l0 812 -27 -6 c-16 -3 -37 -12 -48 -18 -39 -24 -166
-53 -270 -62 -16 -1 -571 -3 -1233 -3 l-1203 -1 -15 -37 c-71 -180 -212 -311
-394 -367 -61 -19 -94 -23 -180 -21 -123 2 -203 24 -297 82 -112 69 -176 140
-235 261 l-40 82 -1181 0 c-650 1 -1215 3 -1256 5 -74 5 -199 33 -262 59 -19
7 -44 17 -57 21 l-22 6 0 -815z"/>
</g>
</svg>
